<?xml version="1.0" encoding="UTF-8" standalone="no"?>
<!-- Created with Inkscape (http://www.inkscape.org/) -->

<svg
   xmlns:dc="http://purl.org/dc/elements/1.1/"
   xmlns:cc="http://creativecommons.org/ns#"
   xmlns:rdf="http://www.w3.org/1999/02/22-rdf-syntax-ns#"
   xmlns:svg="http://www.w3.org/2000/svg"
   xmlns="http://www.w3.org/2000/svg"
   xmlns:sodipodi="http://sodipodi.sourceforge.net/DTD/sodipodi-0.dtd"
   xmlns:inkscape="http://www.inkscape.org/namespaces/inkscape"
   width="432"
   height="275.5"
   viewBox="0 0 432 275.49999"
   id="svg3794"
   version="1.1"
   inkscape:version="0.91 r13725"
   sodipodi:docname="candeal.svg">
  <defs
     id="defs3796" />
  <sodipodi:namedview
     id="base"
     pagecolor="#fffff"
     bordercolor="#666666"
     borderopacity="1.0"
     inkscape:pageopacity="0.0"
     inkscape:pageshadow="2"
     inkscape:zoom="0.35"
     inkscape:cx="1300.4245"
     inkscape:cy="479.94715"
     inkscape:document-units="px"
     inkscape:current-layer="layer1"
     showgrid="false"
     fit-margin-top="0"
     fit-margin-left="0"
     fit-margin-right="0"
     fit-margin-bottom="0"
     units="px"
     inkscape:window-width="1280"
     inkscape:window-height="744"
     inkscape:window-x="-4"
     inkscape:window-y="-4"
     inkscape:window-maximized="1" />
  <metadata
     id="metadata3799">
    <rdf:RDF>
      <cc:Work
         rdf:about="">
        <dc:format>image/svg+xml</dc:format>
        <dc:type
           rdf:resource="http://purl.org/dc/dcmitype/StillImage" />
        <dc:title></dc:title>
      </cc:Work>
    </rdf:RDF>
  </metadata>
  <g
     inkscape:label="Layer 1"
     inkscape:groupmode="layer"
     id="layer1"
     transform="translate(1278.2816,-736.80938)">
    <g
       id="g3831"
       transform="translate(-1458.4221,578.50638)">
      <g
         id="g3803">
	<path
   id="path3805"
   d="m 248.872,249.321 c 0,45.99 54.761,84.029 125.994,90.357 l -0.026,-2.708 c -43.615,-8.757 -76.233,-45.25 -76.233,-87.65 0,-42.399 32.645,-78.487 76.259,-87.242 l 0,-3.115 c -71.233,6.329 -125.994,44.368 -125.994,90.358 z m 169.466,-90.228 0,2.99 c 42.874,9.251 74.785,45.318 74.785,87.237 0,41.921 -31.911,78.401 -74.785,87.651 l 0,2.578 c 70.514,-6.719 124.519,-44.557 124.519,-90.228 -10e-4,-45.673 -54.005,-83.509 -124.519,-90.228 z"
   inkscape:connector-curvature="0"
   style="fill:#002b55" />

	<polygon
   id="polygon3807"
   points="353.818,220.469 350.583,233.766 324.708,228.375 335.49,257.485 318.24,263.235 362.802,294.86 358.489,310.672 395.863,302.105 395.865,302.105 433.239,310.672 428.927,294.86 473.489,263.235 456.24,257.485 467.021,228.375 441.145,233.766 437.912,220.469 412.396,244.188 425.333,191.36 409.881,201.062 395.865,174.47 381.849,201.062 366.396,191.36 379.334,244.188 "
   style="fill:#002b55" />

</g>
      <g
         id="g3809">
	<path
   id="path3811"
   d="m 190.671,424.259 c -7.979,-7.159 -9.955,-16.539 -9.955,-24.354 0,-5.511 1.892,-15.136 9.214,-22.458 4.936,-4.938 12.423,-8.804 25.092,-8.804 3.291,0 7.898,0.247 11.93,0.987 3.126,0.577 5.759,1.07 8.392,1.233 0.905,0.083 1.069,0.413 1.069,0.906 0,0.658 -0.247,1.645 -0.412,4.606 -0.164,2.716 -0.164,7.241 -0.246,8.474 -0.083,1.234 -0.248,1.728 -0.741,1.728 -0.576,0 -0.658,-0.574 -0.658,-1.728 0,-3.207 -1.317,-6.581 -3.456,-8.392 -2.879,-2.468 -9.214,-4.688 -16.454,-4.688 -10.942,0 -16.043,3.208 -18.922,6.004 -6.006,5.761 -7.405,13.083 -7.405,21.475 0,15.714 12.095,30.11 29.7,30.11 6.17,0 11.024,-0.74 14.315,-4.113 1.728,-1.811 2.797,-5.431 3.043,-6.91 0.166,-0.905 0.33,-1.236 0.823,-1.236 0.411,0 0.577,0.577 0.577,1.236 0,0.575 -0.988,7.732 -1.811,10.529 -0.494,1.564 -0.658,1.728 -2.139,2.387 -3.291,1.315 -9.543,1.892 -14.809,1.892 -12.339,0 -20.649,-3.044 -27.147,-8.884 z"
   inkscape:connector-curvature="0"
   style="fill:#808285" />

	<path
   id="path3813"
   d="m 269.239,371.852 c 0.988,-2.715 1.316,-3.209 1.811,-3.209 0.493,0 0.822,0.412 1.81,2.963 1.234,3.125 14.15,37.102 19.168,49.608 2.962,7.322 5.35,8.638 7.077,9.133 1.233,0.41 2.467,0.491 3.29,0.491 0.495,0 0.823,0.082 0.823,0.494 0,0.493 -0.74,0.66 -1.646,0.66 -1.234,0 -7.238,0 -12.917,-0.167 -1.562,-0.081 -2.467,-0.081 -2.467,-0.574 0,-0.331 0.248,-0.494 0.575,-0.577 0.494,-0.164 0.988,-0.903 0.494,-2.222 l -7.651,-20.237 c -0.165,-0.33 -0.329,-0.495 -0.74,-0.495 l -17.688,0 c -0.411,0 -0.658,0.249 -0.822,0.659 l -4.937,14.562 c -0.741,2.057 -1.152,4.032 -1.152,5.512 0,1.646 1.728,2.386 3.127,2.386 l 0.822,0 c 0.576,0 0.823,0.165 0.823,0.494 0,0.493 -0.494,0.66 -1.234,0.66 -1.975,0 -5.512,-0.248 -6.417,-0.248 -0.905,0 -5.43,0.248 -9.296,0.248 -1.07,0 -1.563,-0.167 -1.563,-0.66 0,-0.329 0.329,-0.494 0.74,-0.494 0.576,0 1.728,-0.081 2.386,-0.164 3.783,-0.491 5.429,-3.619 6.911,-7.733 l 18.673,-51.09 z m 8.555,32.907 c 0.412,0 0.412,-0.246 0.33,-0.575 l -7.816,-22.213 c -0.411,-1.234 -0.822,-1.234 -1.234,0 l -7.24,22.213 c -0.164,0.412 0,0.575 0.247,0.575 l 15.713,0 z"
   inkscape:connector-curvature="0"
   style="fill:#808285" />

	<path
   id="path3815"
   d="m 318.271,420.803 c 0.164,6.745 0.986,8.885 3.209,9.544 1.563,0.41 3.373,0.491 4.114,0.491 0.411,0 0.659,0.165 0.659,0.494 0,0.493 -0.495,0.66 -1.482,0.66 -4.69,0 -7.981,-0.248 -8.719,-0.248 -0.742,0 -4.197,0.248 -7.9,0.248 -0.822,0 -1.314,-0.083 -1.314,-0.66 0,-0.329 0.246,-0.494 0.658,-0.494 0.657,0 2.138,-0.081 3.374,-0.491 2.055,-0.576 2.465,-2.964 2.465,-10.449 l 0.085,-47.14 c 0,-3.21 0.246,-4.115 0.904,-4.115 0.657,0 2.058,1.811 2.879,2.634 1.233,1.398 13.493,14.644 26.163,28.218 8.144,8.721 17.111,18.759 19.745,21.473 l -0.904,-41.792 c -0.084,-5.35 -0.659,-7.159 -3.209,-7.818 -1.481,-0.327 -3.374,-0.41 -4.033,-0.41 -0.575,0 -0.658,-0.246 -0.658,-0.576 0,-0.493 0.658,-0.575 1.646,-0.575 3.705,0 7.652,0.246 8.558,0.246 0.903,0 3.621,-0.246 6.991,-0.246 0.906,0 1.481,0.082 1.481,0.575 0,0.33 -0.328,0.576 -0.904,0.576 -0.411,0 -0.987,0 -1.974,0.247 -2.715,0.576 -3.046,2.387 -3.046,7.322 l -0.164,48.21 c 0,5.431 -0.165,5.841 -0.741,5.841 -0.659,0 -1.645,-0.905 -6.006,-5.265 -0.905,-0.823 -12.751,-12.916 -21.471,-22.296 -9.543,-10.283 -18.84,-20.649 -21.473,-23.611 l 1.067,39.407 z"
   inkscape:connector-curvature="0"
   style="fill:#808285" />

	<path
   id="path3817"
   d="m 395.03,393.653 c 0,-12.834 0,-15.138 -0.165,-17.771 -0.164,-2.796 -0.822,-4.112 -3.538,-4.688 -0.659,-0.164 -2.058,-0.247 -2.796,-0.247 -0.331,0 -0.659,-0.164 -0.659,-0.493 0,-0.494 0.41,-0.658 1.315,-0.658 3.703,0 8.886,0.246 9.296,0.246 0.987,0 6.17,-0.246 11.106,-0.246 8.146,0 23.2,-0.74 32.992,9.38 4.111,4.277 7.979,11.105 7.979,20.896 0,10.365 -4.278,18.347 -8.884,23.199 -3.539,3.703 -10.943,9.463 -24.929,9.463 -3.539,0 -7.898,-0.248 -11.436,-0.494 -3.62,-0.246 -6.417,-0.494 -6.829,-0.494 -0.164,0 -1.564,0 -3.291,0.081 -1.646,0 -3.539,0.167 -4.771,0.167 -0.904,0 -1.316,-0.167 -1.316,-0.66 0,-0.245 0.164,-0.494 0.659,-0.494 0.74,0 1.727,-0.164 2.467,-0.328 1.646,-0.327 2.057,-2.141 2.387,-4.524 0.412,-3.455 0.412,-9.954 0.412,-17.852 l 0,-14.483 z m 6.91,8.885 c 0,8.72 0.082,16.289 0.163,17.853 0.081,2.056 0.248,5.347 0.907,6.252 1.068,1.563 4.277,3.291 13.985,3.291 7.65,0 14.727,-2.796 19.58,-7.65 4.277,-4.197 6.58,-12.095 6.58,-19.663 0,-10.448 -4.523,-17.194 -7.897,-20.731 -7.732,-8.145 -17.112,-9.297 -26.901,-9.297 -1.646,0 -4.69,0.246 -5.347,0.576 -0.741,0.328 -0.988,0.739 -0.988,1.645 -0.082,2.798 -0.082,11.19 -0.082,17.525 l 0,10.199 z"
   inkscape:connector-curvature="0"
   style="fill:#808285" />

	<path
   id="path3819"
   d="m 469.733,393.653 c 0,-12.834 0,-15.138 -0.165,-17.771 -0.167,-2.796 -0.823,-4.112 -3.539,-4.688 -0.657,-0.164 -2.057,-0.247 -2.797,-0.247 -0.328,0 -0.659,-0.164 -0.659,-0.493 0,-0.494 0.412,-0.658 1.318,-0.658 1.891,0 4.112,0 5.924,0.082 l 3.372,0.164 c 0.574,0 16.948,0 18.839,-0.082 1.563,-0.082 2.879,-0.246 3.538,-0.411 0.41,-0.083 0.742,-0.411 1.151,-0.411 0.247,0 0.33,0.328 0.33,0.74 0,0.576 -0.412,1.563 -0.658,3.867 -0.081,0.822 -0.246,4.442 -0.413,5.431 -0.082,0.41 -0.245,0.903 -0.574,0.903 -0.495,0 -0.658,-0.41 -0.658,-1.069 0,-0.576 -0.083,-1.974 -0.495,-2.962 -0.574,-1.316 -1.397,-2.303 -5.84,-2.796 -1.398,-0.165 -10.365,-0.248 -11.272,-0.248 -0.328,0 -0.491,0.248 -0.491,0.822 l 0,22.707 c 0,0.576 0.081,0.823 0.491,0.823 1.07,0 11.19,0 13.083,-0.165 1.974,-0.164 3.124,-0.329 3.865,-1.152 0.576,-0.656 0.905,-1.069 1.235,-1.069 0.246,0 0.411,0.165 0.411,0.658 0,0.494 -0.411,1.893 -0.658,4.607 -0.166,1.646 -0.329,4.689 -0.329,5.267 0,0.657 0,1.562 -0.577,1.562 -0.41,0 -0.575,-0.33 -0.575,-0.739 0,-0.822 0,-1.646 -0.33,-2.716 -0.328,-1.152 -1.068,-2.551 -4.277,-2.879 -2.221,-0.246 -10.366,-0.411 -11.766,-0.411 -0.41,0 -0.573,0.246 -0.573,0.575 l 0,7.241 c 0,2.796 -0.083,12.339 0,14.067 0.244,5.676 1.48,6.745 9.542,6.745 2.14,0 5.76,0 7.897,-0.905 2.141,-0.903 3.127,-2.55 3.704,-5.923 0.164,-0.904 0.328,-1.232 0.739,-1.232 0.493,0 0.493,0.656 0.493,1.232 0,0.658 -0.659,6.251 -1.07,7.98 -0.575,2.14 -1.233,2.14 -4.441,2.14 -6.171,0 -10.696,-0.164 -13.903,-0.246 -3.208,-0.167 -5.184,-0.248 -6.417,-0.248 -0.164,0 -1.564,0 -3.291,0.081 -1.646,0 -3.538,0.167 -4.773,0.167 -0.903,0 -1.314,-0.167 -1.314,-0.66 0,-0.245 0.164,-0.494 0.658,-0.494 0.74,0 1.729,-0.164 2.466,-0.328 1.646,-0.327 2.059,-2.141 2.388,-4.524 0.413,-3.455 0.413,-9.954 0.413,-17.852 l 0,-14.482 z"
   inkscape:connector-curvature="0"
   style="fill:#808285" />

	<path
   id="path3821"
   d="m 532.832,371.852 c 0.987,-2.715 1.316,-3.209 1.811,-3.209 0.495,0 0.822,0.412 1.81,2.963 1.233,3.125 14.15,37.102 19.168,49.608 2.963,7.322 5.35,8.638 7.077,9.133 1.233,0.41 2.467,0.491 3.29,0.491 0.493,0 0.822,0.082 0.822,0.494 0,0.493 -0.739,0.66 -1.646,0.66 -1.233,0 -7.24,0 -12.915,-0.167 -1.563,-0.081 -2.469,-0.081 -2.469,-0.574 0,-0.331 0.246,-0.494 0.575,-0.577 0.495,-0.164 0.986,-0.903 0.495,-2.222 l -7.651,-20.237 c -0.164,-0.33 -0.331,-0.495 -0.741,-0.495 l -17.689,0 c -0.409,0 -0.657,0.249 -0.822,0.659 l -4.935,14.562 c -0.74,2.057 -1.153,4.032 -1.153,5.512 0,1.646 1.727,2.386 3.127,2.386 l 0.823,0 c 0.575,0 0.822,0.165 0.822,0.494 0,0.493 -0.494,0.66 -1.234,0.66 -1.974,0 -5.512,-0.248 -6.417,-0.248 -0.905,0 -5.429,0.248 -9.296,0.248 -1.069,0 -1.564,-0.167 -1.564,-0.66 0,-0.329 0.33,-0.494 0.74,-0.494 0.577,0 1.729,-0.081 2.387,-0.164 3.784,-0.491 5.429,-3.619 6.91,-7.733 l 18.675,-51.09 z m 8.557,32.907 c 0.41,0 0.41,-0.246 0.328,-0.575 l -7.815,-22.213 c -0.411,-1.234 -0.822,-1.234 -1.232,0 l -7.242,22.213 c -0.163,0.412 0,0.575 0.247,0.575 l 15.714,0 z"
   inkscape:connector-curvature="0"
   style="fill:#808285" />

	<path
   id="path3823"
   d="m 586.556,408.297 c 0,12.094 0.328,17.358 1.809,18.841 1.316,1.314 3.456,1.891 9.871,1.891 4.363,0 7.982,-0.082 9.957,-2.468 1.068,-1.315 1.891,-3.373 2.138,-4.935 0.084,-0.659 0.248,-1.071 0.739,-1.071 0.413,0 0.495,0.331 0.495,1.235 0,0.904 -0.576,5.842 -1.234,8.226 -0.574,1.894 -0.821,2.223 -5.183,2.223 -5.924,0 -10.201,-0.164 -13.657,-0.246 -3.455,-0.167 -6.004,-0.248 -8.391,-0.248 -0.33,0 -1.728,0.081 -3.373,0.081 -1.646,0.084 -3.455,0.167 -4.69,0.167 -0.904,0 -1.314,-0.167 -1.314,-0.66 0,-0.245 0.164,-0.494 0.655,-0.494 0.741,0 1.729,-0.164 2.47,-0.328 1.645,-0.327 2.058,-2.141 2.386,-4.524 0.412,-3.455 0.412,-9.954 0.412,-17.852 l 0,-14.48 c 0,-12.834 0,-15.138 -0.167,-17.771 -0.162,-2.796 -0.82,-4.112 -3.536,-4.688 -0.657,-0.164 -2.056,-0.247 -2.797,-0.247 -0.328,0 -0.658,-0.164 -0.658,-0.493 0,-0.494 0.412,-0.658 1.317,-0.658 3.7,0 8.884,0.246 9.296,0.246 0.41,0 6.417,-0.246 8.885,-0.246 0.904,0 1.316,0.164 1.316,0.658 0,0.329 -0.33,0.493 -0.658,0.493 -0.575,0 -1.728,0.083 -2.714,0.247 -2.387,0.412 -3.045,1.81 -3.209,4.688 -0.164,2.634 -0.164,4.938 -0.164,17.771 l 0,14.642 z"
   inkscape:connector-curvature="0"
   style="fill:#808285" />

</g>
    </g>
  </g>
</svg>
